<?xml version="1.0" encoding="UTF-8" standalone="no"?>
<!DOCTYPE svg PUBLIC "-//W3C//DTD SVG 1.1//EN" "http://www.w3.org/Graphics/SVG/1.1/DTD/svg11.dtd">
<svg width="100%" height="100%" viewBox="0 0 1200 630" version="1.1" xmlns="http://www.w3.org/2000/svg" xmlns:xlink="http://www.w3.org/1999/xlink" xml:space="preserve" xmlns:serif="http://www.serif.com/" style="fill-rule:evenodd;clip-rule:evenodd;">
    <rect x="0" y="0" width="1200" height="630" style="fill:white;"/>
    <circle cx="870" cy="70" r="220" style="fill:rgb(255,122,47);fill-opacity:0.12;"/>
    <circle cx="60" cy="350" r="150" style="fill:rgb(47,139,255);fill-opacity:0.1;"/>
    <circle cx="840" cy="180" r="60" style="fill:rgb(123,84,255);fill-opacity:0.12;"/>
    <g>
        <g transform="matrix(1,0,0,1,84,152)">
            <g>
                <text x="0px" y="0px" style="font-family:'Space Grotesk', sans-serif;font-weight:700;font-size:64px;fill:rgb(28,20,48);">C</text>
                <g transform="matrix(1,0,0,1,45.259,0)">
                    <text x="0px" y="0px" style="font-family:'Space Grotesk', sans-serif;font-weight:700;font-size:64px;fill:rgb(28,20,48);">o<tspan x="38.133px " y="0px ">s</tspan></text>
                </g>
            </g>
        </g>
        <g transform="matrix(1.119198,0,0,1.119198,-24.793237,-23.73417)">
            <path d="M306,114L306,150C306,161.038 297.038,170 286,170L228,170C216.962,170 208,161.038 208,150L208,114C208,102.962 216.962,94 228,94L286,94C297.038,94 306,102.962 306,114Z" style="fill:none;stroke:rgb(28,20,48);stroke-width:5px;"/>
        </g>
        <g transform="matrix(1,0,0,1,262,152)">
            <g transform="matrix(1,0,0,1,-40.891,0)">
                <text x="0px" y="0px" style="font-family:'Space Grotesk', sans-serif;font-weight:700;font-size:64px;fill:rgb(28,20,48);">PL</text>
            </g>
        </g>
    </g>
    <g>
        <g transform="matrix(1,0,0,1,84,330)">
            <g>
                <text x="0px" y="0px" style="font-family:'Zen Kaku Gothic New', sans-serif;font-weight:700;font-size:54px;fill:rgb(28,20,48);">撮</text>
                <g transform="matrix(1,0,0,1,53.73,0)">
                    <text x="0px" y="0px" style="font-family:'Zen Kaku Gothic New', sans-serif;font-weight:700;font-size:54px;fill:rgb(28,20,48);">っ<tspan x="53.73px 107.46px 161.19px 214.92px " y="0px 0px 0px 0px ">た写真の</tspan></text>
                </g>
            </g>
            <g transform="matrix(1,0,0,1,337.113,0)">
                <text x="0px" y="0px" style="font-family:'Space Grotesk', sans-serif;font-weight:700;font-size:54px;fill:rgb(255,122,47);">“</text>
            </g>
            <g>
                <g transform="matrix(1,0,0,1,363.843,0)">
                    <text x="0px" y="0px" style="font-family:'Zen Kaku Gothic New', sans-serif;font-weight:700;font-size:54px;fill:rgb(255,122,47);">使</text>
                </g>
                <g transform="matrix(1,0,0,1,417.573,0)">
                    <text x="0px" y="0px" style="font-family:'Zen Kaku Gothic New', sans-serif;font-weight:700;font-size:54px;fill:rgb(255,122,47);">っ<tspan x="53.73px 107.46px 161.19px 214.92px 268.65px " y="0px 0px 0px 0px 0px ">ていい範囲</tspan></text>
                </g>
            </g>
            <g transform="matrix(1,0,0,1,739.953,0)">
                <text x="0px" y="0px" style="font-family:'Space Grotesk', sans-serif;font-weight:700;font-size:54px;fill:rgb(255,122,47);">”</text>
            </g>
            <g transform="matrix(1,0,0,1,781.416,0)">
                <text x="0px" y="0px" style="font-family:'Zen Kaku Gothic New', sans-serif;font-weight:700;font-size:54px;fill:rgb(28,20,48);">を</text>
            </g>
        </g>
        <g transform="matrix(1,0,0,1,84,396)">
            <g>
                <text x="0px" y="0px" style="font-family:'Zen Kaku Gothic New', sans-serif;font-weight:700;font-size:54px;fill:rgb(28,20,48);">言</text>
                <g transform="matrix(1,0,0,1,53.73,0)">
                    <text x="0px" y="0px" style="font-family:'Zen Kaku Gothic New', sans-serif;font-weight:700;font-size:54px;fill:rgb(28,20,48);">葉<tspan x="53.73px 107.46px 161.19px 214.92px " y="0px 0px 0px 0px ">にする。</tspan></text>
                </g>
            </g>
        </g>
    </g>
    <path d="M554,444L554,474C554,481.727 547.727,488 540,488L98,488C90.273,488 84,481.727 84,474L84,444C84,436.273 90.273,430 98,430L540,430C547.727,430 554,436.273 554,444Z" style="fill:rgb(28,20,48);"/>
    <g transform="matrix(1,0,0,1,108,468)">
        <text x="0px" y="0px" style="font-family:'Space Mono', monospace;font-size:26px;fill:white;">CosPL 1.0 /</text>
        <g transform="matrix(1,0,0,1,187.84,0)">
            <text x="0px" y="0px" style="font-family:'Space Mono', monospace;font-weight:700;font-size:26px;fill:rgb(255,158,92);">BY-NC-NAI-TD</text>
        </g>
    </g>
    <g transform="matrix(1,0,0,1,84,556)">
        <g>
            <text x="0px" y="0px" style="font-family:'Space Mono', monospace;font-size:24px;fill:rgb(107,101,128);">c</text>
            <g transform="matrix(1,0,0,1,14.785,0)">
                <text x="0px" y="0px" style="font-family:'Space Mono', monospace;font-size:24px;fill:rgb(107,101,128);">o<tspan x="14.785px 29.571px 44.356px 59.141px 73.926px 88.712px 103.497px " y="0px 0px 0px 0px 0px 0px 0px ">spl.org</tspan></text>
            </g>
        </g>
    </g>
    <g transform="matrix(1,0,0,1,820,498)">
        <g>
            <circle cx="37" cy="37" r="35" style="fill:none;stroke:rgb(28,20,48);stroke-width:4px;"/>
            <g transform="matrix(0.82,0,0,0.82,14,14)">
                <circle cx="28" cy="19" r="10.5" style="fill:rgb(28,20,48);"/>
                <path d="M7,50C7,38.48 16.48,29 28,29C39.52,29 49,38.48 49,50L7,50Z" style="fill:rgb(28,20,48);fill-rule:nonzero;"/>
            </g>
        </g>
        <g transform="matrix(0.853659,0,0,0.853659,88.370379,-0.560976)">
            <circle cx="44" cy="44" r="41" style="fill:none;stroke:rgb(28,20,48);stroke-width:5px;"/>
            <g transform="matrix(0.93,0,0,0.93,18,18)">
                <g transform="matrix(1.430115,0,0,1.430115,27.956989,50.940083)">
                    <text x="-12.792px" y="0px" style="font-family:'Space Grotesk', sans-serif;font-weight:700;font-size:46px;fill:rgb(28,20,48);">¥</text>
                </g>
                <g transform="matrix(0.9771,0.212779,-0.212779,0.9771,7.285368,-2.907872)">
                    <path d="M9,47L47,9" style="fill:none;fill-rule:nonzero;stroke:rgb(28,20,48);stroke-width:5px;stroke-linecap:round;"/>
                </g>
            </g>
        </g>
        <g transform="matrix(0.853659,0,0,0.853659,177.301733,-0.560976)">
            <circle cx="44" cy="44" r="41" style="fill:none;stroke:rgb(28,20,48);stroke-width:5px;"/>
            <g transform="matrix(1.078716,0,0,1.078716,13.955235,17.91077)">
                <path d="M28,4L28,13" style="fill:none;fill-rule:nonzero;stroke:rgb(28,20,48);stroke-width:3.5px;stroke-linecap:round;"/>
                <circle cx="28" cy="4" r="3.4" style="fill:rgb(28,20,48);"/>
                <path d="M46,22.774L46,34.226C46,39.621 41.621,44 36.226,44L19.774,44C14.379,44 10,39.621 10,34.226L10,22.774C10,17.379 14.379,13 19.774,13L36.226,13C41.621,13 46,17.379 46,22.774Z" style="fill:none;stroke:rgb(28,20,48);stroke-width:4.2px;"/>
                <circle cx="21" cy="29" r="3.8" style="fill:rgb(28,20,48);"/>
                <circle cx="35" cy="29" r="3.8" style="fill:rgb(28,20,48);"/>
                <path d="M22,38L34,38" style="fill:none;fill-rule:nonzero;stroke:rgb(28,20,48);stroke-width:3.6px;stroke-linecap:round;"/>
                <g transform="matrix(0.960197,0.107773,-0.301247,0.918065,10.204645,-2.435609)">
                    <path d="M9,47L47,9" style="fill:none;fill-rule:nonzero;stroke:rgb(28,20,48);stroke-width:5px;stroke-linecap:round;"/>
                </g>
            </g>
        </g>
        <g transform="matrix(1,0,0,1,266.794063,0)">
            <circle cx="37" cy="37" r="35" style="fill:none;stroke:rgb(28,20,48);stroke-width:4px;"/>
            <g transform="matrix(0.82,0,0,0.82,14,14)">
                <path d="M33,10.878L33,26.122C33,28.814 30.814,31 28.122,31L27.878,31C25.186,31 23,28.814 23,26.122L23,10.878C23,8.186 25.186,6 27.878,6L28.122,6C30.814,6 33,8.186 33,10.878Z" style="fill:rgb(28,20,48);"/>
                <path d="M13,27L28,45L43,27L13,27Z" style="fill:rgb(28,20,48);fill-rule:nonzero;"/>
                <path d="M44,51.7C44,53.19 42.79,54.4 41.3,54.4L14.7,54.4C13.21,54.4 12,53.19 12,51.7C12,50.21 13.21,49 14.7,49L41.3,49C42.79,49 44,50.21 44,51.7Z" style="fill:rgb(28,20,48);"/>
            </g>
        </g>
    </g>
</svg>
